<mxfile host="65bd71144e">
    <diagram id="xlNyBu00RQVA7fdypYl4" name="Page-1">
        <mxGraphModel dx="1454" dy="518" grid="1" gridSize="10" guides="1" tooltips="1" connect="1" arrows="1" fold="1" page="1" pageScale="1" pageWidth="827" pageHeight="1169" math="0" shadow="0">
            <root>
                <mxCell id="0"/>
                <mxCell id="1" parent="0"/>
                <mxCell id="2" value="SubjectName" style="shape=rect;html=1;verticalAlign=top;fontStyle=1;whiteSpace=wrap;align=center;" parent="1" vertex="1">
                    <mxGeometry x="90" y="30" width="640" height="570" as="geometry"/>
                </mxCell>
                <mxCell id="3" value="Jury" style="shape=umlActor;html=1;verticalLabelPosition=bottom;verticalAlign=top;align=center;" parent="1" vertex="1">
                    <mxGeometry x="-10" y="250" width="30" height="60" as="geometry"/>
                </mxCell>
                <mxCell id="5" value="ajouter&lt;br&gt;candidats" style="shape=ellipse;html=1;strokeWidth=3;fontStyle=1;whiteSpace=wrap;align=center;perimeter=ellipsePerimeter;" parent="1" vertex="1">
                    <mxGeometry x="390" y="150" width="120" height="60" as="geometry"/>
                </mxCell>
                <mxCell id="6" value="supprimer&lt;br&gt;candidats" style="shape=ellipse;html=1;strokeWidth=3;fontStyle=1;whiteSpace=wrap;align=center;perimeter=ellipsePerimeter;" parent="1" vertex="1">
                    <mxGeometry x="560" y="200" width="120" height="60" as="geometry"/>
                </mxCell>
                <mxCell id="7" value="modifier&lt;br&gt;candidats" style="shape=ellipse;html=1;strokeWidth=3;fontStyle=1;whiteSpace=wrap;align=center;perimeter=ellipsePerimeter;" parent="1" vertex="1">
                    <mxGeometry x="170" y="130" width="120" height="60" as="geometry"/>
                </mxCell>
                <mxCell id="9" value="" style="edgeStyle=none;html=1;endArrow=none;verticalAlign=bottom;exitX=0.5;exitY=0.5;exitDx=0;exitDy=0;exitPerimeter=0;entryX=0;entryY=1;entryDx=0;entryDy=0;" parent="1" source="3" target="7" edge="1">
                    <mxGeometry width="160" relative="1" as="geometry">
                        <mxPoint x="280" y="250" as="sourcePoint"/>
                        <mxPoint x="440" y="250" as="targetPoint"/>
                    </mxGeometry>
                </mxCell>
                <mxCell id="10" value="" style="edgeStyle=none;html=1;endArrow=none;verticalAlign=bottom;exitX=0.5;exitY=0.5;exitDx=0;exitDy=0;exitPerimeter=0;entryX=0;entryY=0.5;entryDx=0;entryDy=0;" parent="1" source="3" target="5" edge="1">
                    <mxGeometry width="160" relative="1" as="geometry">
                        <mxPoint x="55" y="160" as="sourcePoint"/>
                        <mxPoint x="147.57359312880715" y="101.21320343559637" as="targetPoint"/>
                    </mxGeometry>
                </mxCell>
                <mxCell id="11" value="" style="edgeStyle=none;html=1;endArrow=none;verticalAlign=bottom;exitX=0.5;exitY=0.5;exitDx=0;exitDy=0;exitPerimeter=0;entryX=0;entryY=0.5;entryDx=0;entryDy=0;" parent="1" source="3" target="6" edge="1">
                    <mxGeometry width="160" relative="1" as="geometry">
                        <mxPoint x="55" y="160" as="sourcePoint"/>
                        <mxPoint x="190" y="180" as="targetPoint"/>
                    </mxGeometry>
                </mxCell>
                <mxCell id="12" value="ajouter notes&lt;br&gt;2nd tour" style="shape=ellipse;html=1;strokeWidth=3;fontStyle=1;whiteSpace=wrap;align=center;perimeter=ellipsePerimeter;" parent="1" vertex="1">
                    <mxGeometry x="390" y="260" width="120" height="60" as="geometry"/>
                </mxCell>
                <mxCell id="13" value="ajouter notes&lt;br&gt;1ere tour" style="shape=ellipse;html=1;strokeWidth=3;fontStyle=1;whiteSpace=wrap;align=center;perimeter=ellipsePerimeter;" parent="1" vertex="1">
                    <mxGeometry x="570" y="320" width="120" height="60" as="geometry"/>
                </mxCell>
                <mxCell id="14" value="" style="edgeStyle=none;html=1;endArrow=none;verticalAlign=bottom;entryX=0;entryY=0.5;entryDx=0;entryDy=0;exitX=0.5;exitY=0.5;exitDx=0;exitDy=0;exitPerimeter=0;" parent="1" source="3" target="12" edge="1">
                    <mxGeometry width="160" relative="1" as="geometry">
                        <mxPoint x="50" y="150" as="sourcePoint"/>
                        <mxPoint x="210" y="220" as="targetPoint"/>
                    </mxGeometry>
                </mxCell>
                <mxCell id="15" value="" style="edgeStyle=none;html=1;endArrow=none;verticalAlign=bottom;exitX=0.5;exitY=0.5;exitDx=0;exitDy=0;exitPerimeter=0;entryX=0;entryY=0.5;entryDx=0;entryDy=0;" parent="1" source="3" target="13" edge="1">
                    <mxGeometry width="160" relative="1" as="geometry">
                        <mxPoint x="65" y="170" as="sourcePoint"/>
                        <mxPoint x="210" y="290" as="targetPoint"/>
                    </mxGeometry>
                </mxCell>
                <mxCell id="16" value="Genere les&amp;nbsp; releves&lt;br&gt;et PV en PDF" style="shape=ellipse;html=1;strokeWidth=3;fontStyle=1;whiteSpace=wrap;align=center;perimeter=ellipsePerimeter;" parent="1" vertex="1">
                    <mxGeometry x="380" y="360" width="120" height="60" as="geometry"/>
                </mxCell>
                <mxCell id="17" value="" style="edgeStyle=none;html=1;endArrow=none;verticalAlign=bottom;exitX=0.5;exitY=0.5;exitDx=0;exitDy=0;exitPerimeter=0;entryX=0;entryY=0.5;entryDx=0;entryDy=0;" parent="1" source="3" target="16" edge="1">
                    <mxGeometry width="160" relative="1" as="geometry">
                        <mxPoint x="55" y="160" as="sourcePoint"/>
                        <mxPoint x="240" y="290" as="targetPoint"/>
                    </mxGeometry>
                </mxCell>
                <mxCell id="18" value="appliquer les&lt;br&gt;regles de deliberation" style="shape=ellipse;html=1;strokeWidth=3;fontStyle=1;whiteSpace=wrap;align=center;perimeter=ellipsePerimeter;" parent="1" vertex="1">
                    <mxGeometry x="510" y="450" width="120" height="60" as="geometry"/>
                </mxCell>
                <mxCell id="19" value="" style="edgeStyle=none;html=1;endArrow=none;verticalAlign=bottom;exitX=0.5;exitY=0.5;exitDx=0;exitDy=0;exitPerimeter=0;entryX=0;entryY=0.5;entryDx=0;entryDy=0;" parent="1" source="3" target="18" edge="1">
                    <mxGeometry width="160" relative="1" as="geometry">
                        <mxPoint x="55" y="160" as="sourcePoint"/>
                        <mxPoint x="304" y="330" as="targetPoint"/>
                    </mxGeometry>
                </mxCell>
                <mxCell id="20" value="importer candidats&lt;br&gt;depuit excel" style="shape=ellipse;html=1;strokeWidth=3;fontStyle=1;whiteSpace=wrap;align=center;perimeter=ellipsePerimeter;" parent="1" vertex="1">
                    <mxGeometry x="354" y="470" width="120" height="60" as="geometry"/>
                </mxCell>
                <mxCell id="21" value="affichage les resultats&lt;br&gt;statique" style="shape=ellipse;html=1;strokeWidth=3;fontStyle=1;whiteSpace=wrap;align=center;perimeter=ellipsePerimeter;" parent="1" vertex="1">
                    <mxGeometry x="230" y="520" width="120" height="60" as="geometry"/>
                </mxCell>
                <mxCell id="23" value="" style="edgeStyle=none;html=1;endArrow=none;verticalAlign=bottom;exitX=0.5;exitY=0.5;exitDx=0;exitDy=0;exitPerimeter=0;entryX=0;entryY=0.5;entryDx=0;entryDy=0;" parent="1" source="3" target="20" edge="1">
                    <mxGeometry width="160" relative="1" as="geometry">
                        <mxPoint x="55" y="160" as="sourcePoint"/>
                        <mxPoint x="330" y="290" as="targetPoint"/>
                    </mxGeometry>
                </mxCell>
                <mxCell id="24" value="" style="edgeStyle=none;html=1;endArrow=none;verticalAlign=bottom;exitX=0.5;exitY=0.5;exitDx=0;exitDy=0;exitPerimeter=0;entryX=0;entryY=0.5;entryDx=0;entryDy=0;" parent="1" source="3" target="21" edge="1">
                    <mxGeometry width="160" relative="1" as="geometry">
                        <mxPoint x="55" y="160" as="sourcePoint"/>
                        <mxPoint x="210" y="290" as="targetPoint"/>
                    </mxGeometry>
                </mxCell>
            </root>
        </mxGraphModel>
    </diagram>
</mxfile>